# xmcd
#
# Track frame offsets: 
#        150
#        15556
#        30991
#        50068
#        66061
#        81314
#        98350
#        113515
#        124665
#        138619
#        152732
#        167266
#        197454
#
# Disc length: 3392 seconds
#
# Revision: 0
# Processed by: cddbd v1.5.2PL0 Copyright (c) Steve Scherf et al.
# Submitted via: ExactAudioCopyFreeDBPlugin 1.0
#
DISCID=960d3e0d
DTITLE=Katie Melua - Call Off The Search
DYEAR=2003
DGENRE=R&B
TTITLE0=Call Off The Search
TTITLE1=Crawling Up A Hill
TTITLE2=The Closest Thing To Crazy
TTITLE3=My Aphrodisiac Is You
TTITLE4=Leranin' The Blues
TTITLE5=Blame It On The Moon
TTITLE6=Belfast (Penguins And Cats)
TTITLE7=I Think It's Going To Rain Today
TTITLE8=Mockingbird Song
TTITLE9=Tiger In The Night
TTITLE10=Faraway Voice
TTITLE11=Lilac Wine
TTITLE12=Bonus Material
EXTD=
EXTT0=
EXTT1=
EXTT2=
EXTT3=
EXTT4=
EXTT5=
EXTT6=
EXTT7=
EXTT8=
EXTT9=
EXTT10=
EXTT11=
EXTT12=
PLAYORDER=
